#!OML:ASF E:\Steps\Project 1\Capture day 1\Session 2\Subject.ASF
:FULLY-SPECIFIED
:DEGREES
66
root 16.941 18.019 20.7158 -154.233 -4.55128 175.536
lowerback -29.1651 -2.32287 -8.89058
upperback -0.614 -0.535157 -0.636035
thorax 14.7566 -1.06401 3.86403
lowerneck -6.22137 -1.41064 -0.536834
upperneck 3.79693 -2.06966 3.61124
head 2.326 -0.948495 1.16388
rclavicle 1.01132e-014 -3.08116e-014
rhumerus -38.4279 -21.4428 -75.775
rradius 32.1521
rwrist -1.47958
rhand -4.62548 -54.5124
rfingers 7.12502
rthumb 21.1532 -83.3784
lclavicle 1.01132e-014 -3.08116e-014
lhumerus -32.2201 6.27027 79.9343
lradius 22.7105
lwrist -4.48404
lhand -21.1639 -11.6817
lfingers 7.12502
lthumb 5.21612 18.2341
rfemur -21.6601 2.31929 19.2155
rtibia 5.46883
rfoot -18.5846 0.195265
rtoes -11.5951
lfemur -23.155 -10.0111 -23.6481
ltibia 9.69029
lfoot -7.05423 -2.82616
ltoes -5.5771
67
root 16.9438 18.0148 20.7208 -154.043 -4.58909 175.519
lowerback -29.2941 -2.36873 -8.94464
upperback -0.669929 -0.58138 -0.62046
thorax 14.7554 -1.09203 3.88787
lowerneck -6.14658 -1.38562 -0.621228
upperneck 3.70733 -2.02999 3.67889
head 2.28412 -0.929975 1.20192
rclavicle 1.4561e-014 2.56432e-014
rhumerus -38.4792 -21.5056 -75.7203
rradius 32.0157
rwrist -1.40788
rhand -6.23554 -52.9456
rfingers 7.12502
rthumb 19.6059 -81.977
lclavicle 1.4561e-014 2.56432e-014
lhumerus -32.2332 6.27138 79.8991
lradius 22.6635
lwrist -4.52646
lhand -21.043 -11.5951
lfingers 7.12502
lthumb 5.33288 18.3178
rfemur -21.9389 2.47094 19.188
rtibia 5.60981
rfoot -18.6967 -0.00732996
rtoes -11.7904
lfemur -23.4615 -9.89583 -23.6503
ltibia 9.86469
lfoot -7.10657 -3.00358
ltoes -6.17716
68
root 16.9406 18.0165 20.7169 -154.166 -4.52724 175.505
lowerback -29.259 -2.34934 -8.92327
upperback -0.60306 -0.54999 -0.640044
thorax 14.8141 -1.07617 3.86902
lowerneck -6.18714 -1.39256 -0.684991
upperneck 3.67531 -2.03532 3.72001
head 2.28284 -0.932378 1.22594
rclavicle 4.44781e-015 -8.15017e-015
rhumerus -38.4526 -21.4229 -75.7819
rradius 32.123
rwrist -1.49669
rhand -4.39978 -57.9791
rfingers 7.12502
rthumb 21.37 -86.8206
lclavicle 4.44781e-015 -8.15017e-015
lhumerus -32.2084 6.30641 79.86
lradius 22.6624
lwrist -4.49597
lhand -20.7694 -11.5965
lfingers 7.12502
lthumb 5.59703 18.3096
rfemur -21.8161 2.56219 19.1256
rtibia 5.62131
rfoot -18.6742 -0.082949
rtoes -11.8329
lfemur -23.2619 -9.89348 -23.7177
ltibia 9.79887
lfoot -7.10848 -2.91324
ltoes -6.71906
69
root 16.9385 18.019 20.7137 -154.351 -4.54316 175.565
lowerback -29.1079 -2.32283 -8.86882
upperback -0.572274 -0.541099 -0.605445
thorax 14.7814 -1.06451 3.88568
lowerneck -6.15593 -1.4162 -0.675699
upperneck 3.73387 -2.06301 3.63667
head 2.29551 -0.947262 1.19662
rclavicle 1.41634e-015 -1.64991e-014
rhumerus -38.5768 -21.267 -75.7707
rradius 32.2908
rwrist -1.76985
rhand -5.15151 -54.2039
rfingers 7.12502
rthumb 20.6478 -83.1257
lclavicle 1.41634e-015 -1.64991e-014
lhumerus -32.2732 6.47133 79.8461
lradius 22.6493
lwrist -4.56027
lhand -20.5541 -12.1419
lfingers 7.12502
lthumb 5.80482 17.7586
rfemur -21.5485 2.50639 19.2114
rtibia 5.48527
rfoot -18.5616 -0.0992556
rtoes -12.3691
lfemur -23.0233 -9.94466 -23.6604
ltibia 9.72333
lfoot -7.09561 -2.83599
ltoes -6.47743
70
root 16.9392 18.0191 20.7144 -154.46 -4.63049 175.665
lowerback -29.0155 -2.31143 -8.75521
upperback -0.563787 -0.569915 -0.584601
thorax 14.7542 -1.06667 3.8388
lowerneck -6.08656 -1.42807 -0.598031
upperneck 3.84184 -2.08328 3.5546
head 2.31632 -0.957713 1.15632
rclavicle -2.09718e-014 3.37934e-014
rhumerus -38.7149 -21.0606 -75.863
rradius 32.4918
rwrist -2.01317
rhand -5.27761 -54.2202
rfingers 7.12502
rthumb 20.5267 -83.155
lclavicle -2.09718e-014 3.37934e-014
lhumerus -32.3369 6.62327 79.7643
lradius 22.583
lwrist -4.80968
lhand -20.5961 -12.6928
lfingers 7.12502
lthumb 5.76433 17.2088
rfemur -21.3333 2.53426 19.3609
rtibia 5.29837
rfoot -18.5666 -0.156281
rtoes -13.1805
lfemur -22.9356 -10.018 -23.5062
ltibia 9.72521
lfoot -7.08283 -2.82639
ltoes -5.55407
71
root 16.9384 18.0198 20.7181 -154.5 -4.63603 175.749
lowerback -28.9422 -2.29162 -8.63885
upperback -0.571628 -0.588068 -0.58975
thorax 14.7143 -1.064 3.76529
lowerneck -6.11595 -1.43353 -0.50336
upperneck 3.92649 -2.10039 3.5242
head 2.3482 -0.964767 1.12946
rclavicle -1.30949e-014 -2.82274e-014
rhumerus -38.7382 -20.9442 -75.9654
rradius 32.5486
rwrist -2.07661
rhand -5.20922 -54.5826
rfingers 7.12502
rthumb 20.5924 -83.5104
lclavicle -1.30949e-014 -2.82274e-014
lhumerus -32.3461 6.66292 79.6793
lradius 22.5212
lwrist -4.94906
lhand -20.7459 -12.3435
lfingers 7.12502
lthumb 5.6197 17.562
rfemur -21.2954 2.57139 19.4556
rtibia 5.26377
rfoot -18.5916 -0.10306
rtoes -13.4223
lfemur -22.9169 -10.0477 -23.3984
ltibia 9.71368
lfoot -7.03057 -2.76687
ltoes -4.87754
72
root 16.9374 18.0202 20.7223 -154.496 -4.60364 175.786
lowerback -28.9309 -2.29109 -8.61268
upperback -0.566283 -0.597678 -0.571735
thorax 14.7172 -1.06655 3.76765
lowerneck -6.16149 -1.41123 -0.487946
upperneck 3.92649 -2.07132 3.51098
head 2.35547 -0.949971 1.12353
rclavicle 1.49089e-016 3.02153e-014
rhumerus -38.6796 -20.9845 -75.9567
rradius 32.4999
rwrist -1.98918
rhand -5.12898 -54.6682
rfingers 7.12502
rthumb 20.6695 -83.5876
lclavicle 1.49089e-016 3.02153e-014
lhumerus -32.3284 6.75359 79.6328
lradius 22.4796
lwrist -4.97796
lhand -20.6983 -12.1481
lfingers 7.12502
lthumb 5.66562 17.7562
rfemur -21.3964 2.56926 19.4925
rtibia 5.40839
rfoot -18.5763 -0.0694197
rtoes -13.1808
lfemur -22.9435 -10.0006 -23.3739
ltibia 9.73471
lfoot -7.01688 -2.74196
ltoes -5.3034
73
root 16.9376 18.0202 20.724 -154.509 -4.60003 175.801
lowerback -28.9639 -2.28624 -8.64749
upperback -0.588272 -0.585022 -0.54159
thorax 14.7054 -1.0645 3.82352
lowerneck -5.94472 -1.40004 -0.56093
upperneck 3.90785 -2.04973 3.53589
head 2.31044 -0.941769 1.14572
rclavicle -1.28216e-014 1.80894e-014
rhumerus -38.809 -21.2162 -75.7536
rradius 32.4725
rwrist -1.7633
rhand -5.22425 -54.2201
rfingers 7.12502
rthumb 20.5779 -83.1494
lclavicle -1.28216e-014 1.80894e-014
lhumerus -32.4465 6.83282 79.5978
lradius 22.453
lwrist -5.11477
lhand -20.5727 -12.5678
lfingers 7.12502
lthumb 5.78693 17.3332
rfemur -21.4267 2.6874 19.4919
rtibia 5.48941
rfoot -18.5713 -0.20336
rtoes -12.949
lfemur -22.9335 -9.98787 -23.36
ltibia 9.74747
lfoot -7.04428 -2.72248
ltoes -5.92525
74
root 16.9367 18.0204 20.7251 -154.506 -4.58945 175.829
lowerback -28.9895 -2.30753 -8.63583
upperback -0.540185 -0.610701 -0.492244
thorax 14.7786 -1.07757 3.86152
lowerneck -6.03857 -1.38643 -0.6575
upperneck 3.87066 -2.02171 3.54219
head 2.31633 -0.928042 1.16539
rclavicle 6.28657e-015 1.13307e-014
rhumerus -38.7069 -21.3548 -75.6371
rradius 32.4042
rwrist -1.66494
rhand -5.50099 -53.1841
rfingers 7.12502
rthumb 20.312 -82.142
lclavicle 6.28657e-015 1.13307e-014
lhumerus -32.3782 7.07027 79.5895
lradius 22.4229
lwrist -5.37918
lhand -20.5584 -12.7792
lfingers 7.12502
lthumb 5.80076 17.1214
rfemur -21.3983 2.88237 19.478
rtibia 5.38381
rfoot -18.5502 -0.34605
rtoes -12.669
lfemur -22.9368 -9.99646 -23.3286
ltibia 9.74219
lfoot -7.0507 -2.6725
ltoes -6.08705
